# xmcd
#
# Track frame offsets: 
#        150
#        22233
#        44961
#        76423
#        97030
#        115342
#        125195
#        144669
#        165259
#        190555
#        211178
#        226404
#        248336
#        267106
#        289126
#
# Disc length: 4160 seconds
#
# Revision: 0
# Processed by: cddbd v1.5.2PL0 Copyright (c) Steve Scherf et al.
# Submitted via: ExactAudioCopy v1.3
#
DISCID=d7103e0f
DTITLE=王华 - 应为有你 无止的爱
DYEAR=1900
DGENRE=Country
TTITLE0=应为有你 无止的爱
TTITLE1=如果我想唱首歌
TTITLE2=我心花怒放
TTITLE3=小屋
TTITLE4=爱情像一只顽皮鸟儿
TTITLE5=塞维利亚老城墙旁边
TTITLE6=怀念播音员
TTITLE7=是爱
TTITLE8=心事谁人知
TTITLE9=世上没有优丽狄茜
TTITLE10=ANY DREAM WILL DO
TTITLE11=你是我所有的回忆
TTITLE12=TIME TO SAY GOOD-BYE
TTITLE13=应为有你 无止的爱(伴奏)
TTITLE14=如果我想唱首歌(伴奏)
EXTD=
EXTT0=
EXTT1=
EXTT2=
EXTT3=
EXTT4=
EXTT5=
EXTT6=
EXTT7=
EXTT8=
EXTT9=
EXTT10=
EXTT11=
EXTT12=
EXTT13=
EXTT14=
PLAYORDER=
